<svg xmlns="http://www.w3.org/2000/svg" viewBox="0 0 512 512">
  <defs>
    <linearGradient id="mask" x1="0" x2="1" y1="0" y2="1">
      <stop offset="0%" stop-color="#1d4ed8"/>
      <stop offset="100%" stop-color="#06b6d4"/>
    </linearGradient>
  </defs>
  <rect width="512" height="512" fill="url(#mask)"/>
  <circle cx="256" cy="256" r="176" fill="#ffffff" fill-opacity=".12"/>
  <path d="M256 154c18 0 32 14 32 32v39h39c18 0 32 14 32 32s-14 32-32 32h-39v39c0 18-14 32-32 32s-32-14-32-32v-39h-39c-18 0-32-14-32-32s14-32 32-32h39v-39c0-18 14-32 32-32Z" fill="#fff"/>
  <path d="M171 364c16-36 48-56 85-56s69 20 85 56" fill="none" stroke="#fff" stroke-linecap="round" stroke-width="24"/>
</svg>
